<svg width="20" height="20" viewBox="0 0 20 20" fill="none" xmlns="http://www.w3.org/2000/svg">
<path d="M18.47 2.50166e-06H1.53C1.33958 -0.00264212 1.1505 0.03225 0.973563 0.102686C0.796628 0.173123 0.635301 0.277723 0.498795 0.410514C0.362289 0.543306 0.253279 0.701687 0.177989 0.876612C0.1027 1.05154 0.062606 1.23958 0.0599976 1.43V18.57C0.062606 18.7604 0.1027 18.9485 0.177989 19.1234C0.253279 19.2983 0.362289 19.4567 0.498795 19.5895C0.635301 19.7223 0.796628 19.8269 0.973563 19.8973C1.1505 19.9678 1.33958 20.0026 1.53 20H18.47C18.6604 20.0026 18.8495 19.9678 19.0264 19.8973C19.2034 19.8269 19.3647 19.7223 19.5012 19.5895C19.6377 19.4567 19.7467 19.2983 19.822 19.1234C19.8973 18.9485 19.9374 18.7604 19.94 18.57V1.43C19.9374 1.23958 19.8973 1.05154 19.822 0.876612C19.7467 0.701687 19.6377 0.543306 19.5012 0.410514C19.3647 0.277723 19.2034 0.173123 19.0264 0.102686C18.8495 0.03225 18.6604 -0.00264212 18.47 2.50166e-06ZM6.09 16.74H3.09V7.74H6.09V16.74ZM4.59 6.48C4.17626 6.48 3.77947 6.31565 3.48691 6.02309C3.19435 5.73053 3.03 5.33374 3.03 4.92C3.03 4.50626 3.19435 4.10947 3.48691 3.81692C3.77947 3.52436 4.17626 3.36 4.59 3.36C4.80969 3.33509 5.03217 3.35686 5.24287 3.42389C5.45357 3.49092 5.64774 3.60169 5.81265 3.74896C5.97757 3.89624 6.10952 4.07668 6.19987 4.27848C6.29021 4.48029 6.33692 4.6989 6.33692 4.92C6.33692 5.14111 6.29021 5.35972 6.19987 5.56152C6.10952 5.76332 5.97757 5.94377 5.81265 6.09104C5.64774 6.23831 5.45357 6.34909 5.24287 6.41612C5.03217 6.48315 4.80969 6.50492 4.59 6.48ZM16.91 16.74H13.91V11.91C13.91 10.7 13.48 9.91 12.39 9.91C12.0527 9.91247 11.7242 10.0183 11.4488 10.2132C11.1735 10.4081 10.9645 10.6827 10.85 11C10.7717 11.235 10.7378 11.4826 10.75 11.73V16.73H7.75C7.75 16.73 7.75 8.55 7.75 7.73H10.75V9C11.0225 8.52711 11.4189 8.13752 11.8964 7.8732C12.374 7.60889 12.9146 7.47985 13.46 7.5C15.46 7.5 16.91 8.79 16.91 11.56V16.74Z" fill="white"/>
</svg>
